PathFileType	4	(X/Y/Z)	Walk4.trc
DataRate	CameraRate	NumFrames	NumMarkers	Units	OrigDataRate	OrigDataStartFrame	OrigNumFrames
200.000000	200.000000	8	58	mm	200.000000	538	662
Frame#	Times		RLFC		RBHD		RMT5		RToe		RTB2		RMT1		LACR1		LElbow		LUA1		LWRR		C7		LCAR		RCAL		RFA1		RCAR		RTH3		LLFC		LTH3		LPSI		LASI		LMMAL		RPSI		LTB2		LCAL		LMT5		RLMAL		RFHD		LTH2		RElbow		RWRR		RMFC		LElbowM		LTB1		LToe		RTH1		RTH4		LTH4		T10		LTH1		RBack		RWRU		LTB3		LTB4		LBHD		LWRU		RTB4		LLMAL		LMT1		RTB3		LMFC		RTB1		RASI		RTH2		LFHD		RACR1		RUA1		RMMAL		RElbowM
			X1	Y1	Z1	X2	Y2	Z2	X3	Y3	Z3	X4	Y4	Z4	X5	Y5	Z5	X6	Y6	Z6	X7	Y7	Z7	X8	Y8	Z8	X9	Y9	Z9	X10	Y10	Z10	X11	Y11	Z11	X12	Y12	Z12	X13	Y13	Z13	X14	Y14	Z14	X15	Y15	Z15	X16	Y16	Z16	X17	Y17	Z17	X18	Y18	Z18	X19	Y19	Z19	X20	Y20	Z20	X21	Y21	Z21	X22	Y22	Z22	X23	Y23	Z23	X24	Y24	Z24	X25	Y25	Z25	X26	Y26	Z26	X27	Y27	Z27	X28	Y28	Z28	X29	Y29	Z29	X30	Y30	Z30	X31	Y31	Z31	X32	Y32	Z32	X33	Y33	Z33	X34	Y34	Z34	X35	Y35	Z35	X36	Y36	Z36	X37	Y37	Z37	X38	Y38	Z38	X39	Y39	Z39	X40	Y40	Z40	X41	Y41	Z41	X42	Y42	Z42	X43	Y43	Z43	X44	Y44	Z44	X45	Y45	Z45	X46	Y46	Z46	X47	Y47	Z47	X48	Y48	Z48	X49	Y49	Z49	X50	Y50	Z50	X51	Y51	Z51	X52	Y52	Z52	X53	Y53	Z53	X54	Y54	Z54	X55	Y55	Z55	X56	Y56	Z56	X57	Y57	Z57	X58	Y58	Z58

538	2.69	209.93	509.67	140.06	229.72	1609	-22.803	167.34	22.406	119.43	267.68	22.145	78.269	171.89	272.3	116.47	213.82	27.832	37.161	281.06	1418.7	-133.06	128.85	1114	-247.65	204.68	1232.7	-212.84	104.75	831.76	-253.5	199.58	1478	43.228	101.37	975.48	-255.8	5.6195	40.724	15.241	311.21	926.67	326.65	427.95	814.94	304.87	212.15	557.16	146.26	348.34	526.29	-121.88	342.7	582.63	-128.63	100.46	1041.6	-16.893	295.03	1031.4	-128.82	506.05	101.55	-27.662	95.747	1045.8	51.753	443.63	332.96	-120	439.97	34.375	-57.137	615.6	72.267	-113.78	59.3	74.312	78.325	407.09	1646.5	5.3638	374.71	691.29	-98.29	246.06	1074.7	333.72	412.81	858.57	255.42	188.39	484.51	13.827	85.026	1117.8	-174.13	436.97	424.7	-46.463	666.82	127.15	-60.036	214.28	741.99	192.17	216.51	648	171.81	319.87	674.01	-143.67	119.51	1223.7	36.731	295.66	763.59	-154.49	189.13	1362.7	195.89	352.63	813.91	294.58	480.62	244.59	-53.719	458.01	334.49	-49.438	233.81	1598.8	113.85	169.62	795.83	-240.15	183.44	272.42	41.733	488.72	81.559	-107.45	637.15	89.676	-36.196	148.33	191.16	35.969	347.4	496.28	6.5412	219.8	365.15	48.485	277.68	988.94	180.87	280.31	655.24	135.45	408.87	1642.6	80.243	317.54	1418.2	189.9	300.02	1238.9	280.86	91.933	74.527	2.3259	201.17	1071.3	259.13
539	2.695	212.81	509.09	140	234.78	1608.3	-23.072	167.31	22.375	119.36	267.7	22.039	78.192	173.45	271.87	116.4	213.86	27.856	37.135	286.27	1418	-133.27	133.29	1113.8	-247.86	209.42	1232.3	-213.1	108.2	831.58	-253.41	204.65	1477.3	42.989	105.3	975.34	-255.85	5.7097	41.162	15.23	316.74	926.07	326.57	433.64	814.52	304.71	215.22	556.64	146.27	351.21	524.99	-121.74	344.74	580.74	-128.99	105.38	1041	-17.479	300.24	1030.5	-128.69	517.16	103.05	-26.582	100.51	1045.2	51.146	450.05	333.12	-119.63	452.02	34.516	-55.408	626.82	74.911	-113.05	59.53	74.595	78.307	412.14	1645.9	5.1439	377.76	689.22	-98.956	251.4	1074.1	333.65	418.34	858.09	255.25	191.2	484.1	13.707	89.413	1117.8	-174.35	442.32	425.12	-46.514	677.45	130.77	-59.716	218.03	741.39	192.03	219.93	647.45	171.75	322.39	672.27	-143.83	124.46	1223.1	36.309	298.73	761.99	-154.65	194.21	1362.1	195.68	358.3	813.39	294.56	489.12	245.63	-53.182	464.99	335.22	-49.206	238.84	1598.2	113.59	172.9	795.42	-239.9	184.87	272	41.564	499.81	82.433	-106.14	648.41	93.004	-35.749	149.3	190.93	35.878	351.06	495.12	6.6976	221.75	364.65	48.017	281.97	988.32	181.05	283.8	654.41	135.45	413.91	1642	80.02	322.61	1417.5	189.66	305.29	1238.2	280.65	92.128	74.669	2.2858	206.48	1070.6	259.09
540	2.7	215.72	508.51	139.94	239.85	1607.6	-23.366	167.28	22.343	119.3	267.71	21.942	78.121	175.02	271.45	116.33	213.89	27.895	37.121	291.49	1417.3	-133.5	137.79	1113.6	-248.1	214.19	1231.9	-213.38	111.74	831.39	-253.35	209.74	1476.7	42.727	109.3	975.17	-255.94	5.7996	41.624	15.241	322.21	925.46	326.47	439.26	814.06	304.54	218.33	556.11	146.28	354.36	523.8	-121.57	347.03	578.98	-129.34	110.32	1040.5	-18.056	305.45	1029.7	-128.56	527.59	104.47	-25.41	105.32	1044.6	50.55	456.31	333.2	-119.2	463.27	34.678	-53.499	637.19	77.329	-112.35	59.767	74.893	78.308	417.19	1645.3	4.9057	380.92	687.32	-99.643	256.72	1073.4	333.54	423.84	857.58	255.06	194.01	483.69	13.568	93.846	1117.7	-174.6	447.7	425.48	-46.546	687.35	134.09	-59.492	221.83	740.79	191.87	223.41	646.9	171.68	325.07	670.65	-144.03	129.43	1222.5	35.879	301.85	760.46	-154.84	199.28	1361.5	195.44	363.91	812.85	294.51	497.22	246.57	-52.569	471.78	335.88	-48.924	243.87	1597.5	113.3	176.28	795	-239.68	186.31	271.59	41.408	510.1	83.227	-104.7	658.91	96.088	-35.381	150.27	190.72	35.795	354.99	494.13	6.8829	223.7	364.12	47.579	286.29	987.71	181.22	287.33	653.57	135.42	418.96	1641.4	79.779	327.69	1416.8	189.39	310.55	1237.5	280.41	92.318	74.828	2.2572	211.77	1069.8	259
541	2.705	218.66	507.93	139.86	244.93	1606.9	-23.686	167.26	22.309	119.25	267.72	21.858	78.057	176.61	271.02	116.26	213.92	27.945	37.118	296.71	1416.6	-133.75	142.35	1113.3	-248.36	219	1231.5	-213.67	115.38	831.17	-253.32	214.83	1476.1	42.442	113.38	974.98	-256.06	5.8885	42.111	15.273	327.64	924.85	326.33	444.81	813.58	304.37	221.48	555.58	146.27	357.79	522.74	-121.36	349.63	577.4	-129.69	115.28	1039.9	-18.62	310.68	1028.9	-128.43	537.31	105.75	-24.15	110.15	1044	49.972	462.38	333.19	-118.73	473.67	34.825	-51.42	646.68	79.461	-111.67	60.011	75.208	78.33	422.26	1644.7	4.6481	384.22	685.63	-100.33	262.01	1072.7	333.39	429.28	857.05	254.86	196.83	483.29	13.412	98.327	1117.6	-174.88	453.11	425.77	-46.548	696.52	137.04	-59.369	225.69	740.19	191.7	226.94	646.35	171.61	327.95	669.16	-144.27	134.43	1221.9	35.446	305.05	759.03	-155.09	204.36	1360.8	195.18	369.46	812.29	294.43	504.92	247.39	-51.88	478.38	336.44	-48.584	248.91	1596.8	112.98	179.76	794.56	-239.48	187.76	271.18	41.263	519.57	83.896	-103.16	668.65	98.873	-35.073	151.24	190.52	35.722	359.21	493.32	7.1153	225.67	363.55	47.19	290.65	987.13	181.39	290.89	652.72	135.36	424.01	1640.8	79.52	332.78	1416.1	189.1	315.8	1236.8	280.15	92.502	75.003	2.2407	217.05	1069.1	258.86
542	2.71	221.63	507.35	139.78	250.02	1606.2	-24.031	167.23	22.275	119.19	267.73	21.785	78.001	178.22	270.59	116.18	213.95	28.001	37.127	301.93	1416	-134.03	146.97	1113.1	-248.65	223.84	1231.1	-213.99	119.13	830.92	-253.33	219.93	1475.5	42.134	117.54	974.76	-256.21	5.9759	42.622	15.33	333.02	924.23	326.15	450.3	813.07	304.19	224.66	555.05	146.25	361.55	521.79	-121.11	352.62	576.01	-130	120.26	1039.3	-19.167	315.92	1028.1	-128.32	546.31	106.86	-22.809	115.03	1043.5	49.415	468.28	333.08	-118.19	483.2	34.925	-49.187	655.28	81.256	-111.02	60.263	75.539	78.37	427.34	1644.1	4.3698	387.71	684.21	-101	267.27	1072.1	333.2	434.69	856.5	254.66	199.64	482.89	13.238	102.85	1117.5	-175.2	458.56	425.98	-46.505	704.95	139.58	-59.347	229.62	739.6	191.52	230.51	645.81	171.52	331.1	667.83	-144.54	139.44	1221.3	35.015	308.37	757.73	-155.39	209.44	1360.2	194.9	374.94	811.72	294.32	512.21	248.05	-51.112	484.78	336.88	-48.18	253.95	1596.2	112.63	183.34	794.11	-239.3	189.22	270.77	41.128	528.22	84.405	-101.51	677.61	101.31	-34.807	152.22	190.34	35.66	363.75	492.71	7.4129	227.65	362.94	46.86	295.05	986.55	181.55	294.49	651.86	135.28	429.07	1640.2	79.241	337.87	1415.4	188.78	321.03	1236.2	279.86	92.679	75.198	2.2368	222.31	1068.4	258.67
543	2.715	224.62	506.79	139.69	255.13	1605.6	-24.402	167.21	22.243	119.15	267.73	21.724	77.953	179.84	270.16	116.1	213.98	28.058	37.147	307.15	1415.3	-134.33	151.64	1112.7	-248.96	228.7	1230.7	-214.32	122.98	830.66	-253.37	225.04	1474.8	41.803	121.79	974.51	-256.41	6.0607	43.159	15.411	338.36	923.61	325.95	455.72	812.54	304	227.88	554.52	146.22	365.63	520.96	-120.81	356.04	574.85	-130.28	125.26	1038.8	-19.694	321.15	1027.3	-128.22	554.57	107.75	-21.395	119.93	1042.9	48.882	474	332.86	-117.58	491.85	34.951	-46.828	662.99	82.675	-110.39	60.522	75.887	78.428	432.44	1643.4	4.07	391.39	683.06	-101.63	272.51	1071.4	332.96	440.04	855.93	254.45	202.45	482.5	13.048	107.43	1117.3	-175.55	464.04	426.09	-46.404	712.64	141.65	-59.417	233.61	739.02	191.33	234.13	645.27	171.41	334.55	666.68	-144.87	144.48	1220.7	34.59	311.86	756.58	-155.75	214.52	1359.6	194.58	380.36	811.14	294.18	519.1	248.54	-50.265	490.99	337.18	-47.704	259	1595.5	112.26	187.02	793.63	-239.14	190.68	270.38	40.999	536.03	84.726	-99.792	685.8	103.34	-34.57	153.19	190.17	35.608	368.62	492.29	7.7927	229.65	362.27	46.599	299.5	985.99	181.69	298.13	651	135.16	434.14	1639.6	78.942	342.99	1414.7	188.45	326.25	1235.5	279.55	92.85	75.413	2.2454	227.56	1067.7	258.43
544	2.72	227.63	506.22	139.58	260.25	1604.9	-24.798	167.2	22.212	119.11	267.74	21.674	77.914	181.48	269.73	116.02	214.01	28.112	37.176	312.37	1414.6	-134.65	156.37	1112.4	-249.3	233.61	1230.2	-214.66	126.95	830.37	-253.46	230.16	1474.2	41.449	126.12	974.24	-256.63	6.1425	43.723	15.515	343.64	922.98	325.71	461.06	811.99	303.8	231.14	553.99	146.16	370.03	520.23	-120.45	359.92	573.93	-130.51	130.28	1038.2	-20.199	326.39	1026.5	-128.15	562.09	108.39	-19.918	124.88	1042.3	48.375	479.54	332.51	-116.89	499.62	34.876	-44.373	669.83	83.693	-109.79	60.788	76.25	78.503	437.54	1642.8	3.7476	395.3	682.21	-102.19	277.73	1070.8	332.67	445.35	855.34	254.22	205.26	482.11	12.843	112.05	1117.1	-175.94	469.56	426.1	-46.228	719.6	143.21	-59.556	237.66	738.44	191.12	237.8	644.73	171.3	338.34	665.72	-145.23	149.55	1220.2	34.173	315.54	755.58	-156.18	219.61	1359.1	194.25	385.7	810.55	294	525.58	248.82	-49.336	497	337.33	-47.149	264.06	1594.9	111.86	190.82	793.14	-239.01	192.15	269.99	40.872	543	84.837	-98.008	693.22	104.93	-34.345	154.17	190.02	35.568	373.83	492.05	8.2689	231.66	361.57	46.409	304.01	985.43	181.82	301.8	650.13	135.02	439.23	1639	78.622	348.11	1414.1	188.09	331.46	1234.9	279.21	93.016	75.65	2.2664	232.79	1067	258.15
545	2.725	230.67	505.67	139.47	265.38	1604.3	-25.219	167.18	22.184	119.07	267.74	21.635	77.883	183.14	269.3	115.93	214.04	28.158	37.212	317.59	1414	-134.99	161.15	1112	-249.65	238.54	1229.7	-215.02	131.02	830.06	-253.58	235.28	1473.6	41.074	130.53	973.93	-256.89	6.2207	44.315	15.642	348.87	922.37	325.44	466.34	811.42	303.58	234.43	553.47	146.09	374.74	519.59	-120.01	364.27	573.25	-130.68	135.33	1037.7	-20.682	331.62	1025.8	-128.1	568.87	108.76	-18.386	129.86	1041.7	47.896	484.9	332.03	-116.12	506.5	34.683	-41.86	675.8	84.295	-109.19	61.061	76.631	78.592	442.66	1642.2	3.4017	399.46	681.66	-102.68	282.92	1070.1	332.35	450.61	854.74	253.99	208.07	481.72	12.629	116.72	1116.9	-176.35	475.12	426	-45.963	725.84	144.24	-59.734	241.77	737.88	190.89	241.52	644.2	171.16	342.51	664.96	-145.63	154.63	1219.6	33.767	319.46	754.74	-156.66	224.71	1358.5	193.9	390.98	809.95	293.8	531.65	248.88	-48.325	502.82	337.31	-46.508	269.13	1594.3	111.44	194.73	792.63	-238.91	193.62	269.62	40.746	549.17	84.729	-96.18	699.88	106.05	-34.116	155.14	189.89	35.54	379.36	491.96	8.8516	233.69	360.83	46.287	308.58	984.89	181.92	305.5	649.25	134.83	444.32	1638.4	78.278	353.24	1413.4	187.72	336.65	1234.3	278.85	93.178	75.911	2.2987	238.01	1066.3	257.83
